PathFileType	4	(X/Y/Z)	RBDS019\RBDS019runT45.trc
DataRate	CameraRate	NumFrames	NumMarkers	Units	OrigDataRate	OrigDataStartFrame	OrigNumFrames
150.000000	150.000000	4	33	mm	150.000000	1125	4500
Frame#	Time	L.ASIS			L.Heel.Bottom			L.Heel.Lateral			L.Heel.Top			L.Iliac.Crest			L.MT1			L.MT5			L.PSIS			L.Shank.Bottom.Lateral			L.Shank.Bottom.Medial			L.Shank.Top.Lateral			L.Shank.Top.Medial			L.Thigh.Bottom.Lateral			L.Thigh.Bottom.Medial			L.Thigh.Top.Lateral			L.Thigh.Top.Medial			R.ASIS			R.ASY			R.Heel.Bottom			R.Heel.Lateral			R.Heel.Top			R.Iliac.Crest			R.MT1			R.MT5			R.PSIS			R.Shank.Bottom.Lateral			R.Shank.Bottom.Medial			R.Shank.Top.Lateral			R.Shank.Top.Medial			R.Thigh.Bottom.Lateral			R.Thigh.Bottom.Medial			R.Thigh.Top.Lateral			R.Thigh.Top.Medial			
		X1	Y1	Z1	X2	Y2	Z2	X3	Y3	Z3	X4	Y4	Z4	X5	Y5	Z5	X6	Y6	Z6	X7	Y7	Z7	X8	Y8	Z8	X9	Y9	Z9	X10	Y10	Z10	X11	Y11	Z11	X12	Y12	Z12	X13	Y13	Z13	X14	Y14	Z14	X15	Y15	Z15	X16	Y16	Z16	X17	Y17	Z17	X18	Y18	Z18	X19	Y19	Z19	X20	Y20	Z20	X21	Y21	Z21	X22	Y22	Z22	X23	Y23	Z23	X24	Y24	Z24	X25	Y25	Z25	X26	Y26	Z26	X27	Y27	Z27	X28	Y28	Z28	X29	Y29	Z29	X30	Y30	Z30	X31	Y31	Z31	X32	Y32	Z32	X33	Y33	Z33	

1126	7.500000000000001	2351.803536607915	937.3571503338886	961.2258754383089	1754.710653832911	661.4878019374746	1093.250038643689	1745.952503335424	641.3880048941236	1042.11126581087	1788.224716796797	630.3463485716998	1076.560994077951	2313.000500757521	1007.098513331462	927.9374652712108	1655.06425257152	478.1182438938977	1085.303282662104	1650.040582220728	539.1601791537478	998.040960217679	2184.145185457524	986.3775911402872	1010.409117425898	1829.672862974675	567.4943498130164	996.4288167028355	1839.630589363845	599.2787819732991	1035.205753571091	1907.16744694566	566.5498105637406	972.705230367701	1921.28247905058	597.1420420066083	1013.277540024413	2159.065682025679	585.7014256422194	917.962657192198	2110.540393133041	606.3708869286223	968.9255086951824	2187.153103392885	690.087968906749	902.4332468291642	2139.244785562237	710.4692307803195	950.2295330680237	2316.452933965336	959.5617255877285	1173.19626833338	nan	nan	nan	2462.408785091194	24.19998115991212	1082.033597839047	2484.276623393412	43.06554659571741	1123.830715654185	2455.693933940803	68.11839928241433	1087.579870772505	2260.142808425866	1021.532183620889	1201.147231639412	2636.334686975396	117.3065959611593	1045.739695065957	2622.934813736806	81.91529483171372	1146.241674872974	2172.466977997497	985.0561803436429	1109.49303965933	2485.167572963989	168.6370696412506	1148.76869265502	2443.848157514907	163.4001356574041	1111.822697858755	2455.730513676928	241.5181342579949	1169.97235334528	2417.082464216006	236.8275285450773	1131.202383602839	2376.669852260839	574.9584450376375	1204.752817301001	2323.068867928766	555.7734908754461	1162.103713161259	2325.866661260669	669.906206501273	1227.442919934859	2271.709331618928	648.7816500598485	1190.895470339841	
1127	7.506666666666667	2351.970235808528	932.6863422416689	961.7122469224834	1776.245786265574	671.4019807237714	1094.163731725513	1767.330126447746	652.1759880720834	1042.59959960155	1808.711339133135	638.9346247498071	1077.77618441197	2314.037946470348	1001.490855560947	927.6199788197561	1668.618538626704	492.193676511814	1083.238576569468	1667.709850920467	554.1702680376721	996.1659288172547	2183.192726628954	979.5829698994445	1009.208410861276	1846.91777526036	573.9949843425411	996.4350548380271	1858.775330236486	604.8263738490651	1035.384278012351	1924.151384438127	568.719730354026	972.5686561970982	1940.136902276757	598.0878370678304	1013.417850175971	2166.013376208064	576.9514859688522	917.013266525089	2117.214292858403	596.094264633	968.3013764233788	2191.315722584864	682.1803257182878	901.9527010486536	2143.33234823408	701.1177768544882	950.2798060753461	2314.660151781997	954.6748822676838	1174.361741751817	nan	nan	nan	2440.841963157111	21.61740741246405	1082.490416334512	2463.373231352791	39.53233775366734	1124.230906636281	2436.786949509193	65.62429640357333	1087.25153296861	2258.394117936821	1016.590439581784	1200.755923900295	2618.798890880568	104.6660533001274	1046.486342911741	2602.949671952244	71.77154969163632	1147.557794484714	2170.387001151944	978.6514580462751	1108.41053002921	2469.969360411061	161.7354947667324	1148.803011413852	2428.406301787746	157.8562476494267	1112.102889817988	2442.874678786782	235.3015261420113	1170.160549896157	2403.930779610162	231.9054186154399	1131.728546947606	2370.929774042881	569.8492117642181	1204.695527105689	2317.556283380458	551.1911878598488	1161.610082664154	2320.61448020787	665.1124604829261	1227.155838406774	2266.684930669734	644.5510018285727	1190.045716817995	
1128	7.513333333333334	2351.860902625597	927.531159375764	962.1693929270241	1798.451119670993	679.6860619226004	1094.165947580502	1789.438731576849	660.9387359990045	1042.31089490704	1829.94808331999	646.0204028469514	1078.268193042401	2315.065208567892	995.3337314524795	927.1854320844134	1684.057490256635	504.450675339215	1081.411776727478	1686.799220561397	566.5993284883775	994.2008471039502	2181.958839356739	972.3739795633817	1007.625859611768	1865.22728027877	579.0429664339052	996.0820161672086	1878.895170434507	608.8843353521146	1035.199447658219	1942.00879074201	569.5840894956502	972.1357694611285	1959.756325841066	597.704324580917	1013.268992135443	2173.492031694484	567.7433145401923	915.9480650628216	2124.210068097869	585.2992068740294	967.260542376745	2195.764100259685	673.8107615492636	901.3292669171648	2147.534830872663	691.2018886106511	949.9953692108212	2312.656139694392	949.5824237067553	1175.678693087532	nan	nan	nan	2416.779233807765	20.12839334929403	1082.782004235675	2440.141377353936	37.02125893540425	1124.39914544054	2415.645878533243	64.20641225458627	1086.694981219746	2256.39837176998	1010.94648869901	1200.582724777493	2599.080478679951	92.03018754500171	1046.797978741291	2580.741828349988	61.90990195457755	1148.574865234802	2167.975143218215	972.1034626361733	1106.930814421542	2453.449125890492	155.4747423810917	1148.645422043421	2411.55718159008	153.3088636019366	1112.322120564508	2429.227060812387	229.7577813045599	1170.392544821339	2389.908908125115	227.9981225123118	1132.439557498739	2365.816257313605	565.2058688454613	1205.130867140492	2312.742493315189	546.8352032344263	1161.674552699173	2315.650600318525	660.6574591104833	1227.252767133333	2262.049673848596	640.4367240864393	1189.620691405773	
1129	7.52	2351.415045337222	921.9575534331082	962.6000696217309	1821.091203913951	686.4254023077466	1093.082895079664	1812.00163823257	667.6885117623063	1041.120837301823	1851.723359916413	651.6738739100207	1077.884300066037	2315.933171575464	988.6901123046763	926.6078995794019	1701.150140560568	514.8141859904504	1079.922284874818	1706.963332167257	576.3114828690782	992.2008533774392	2180.416562563066	964.8927838298011	1005.612795322742	1884.457128882407	582.6145868095467	995.3170973164007	1899.82337312272	611.5100567087281	1034.567090047381	1960.639616691602	569.168649112155	971.361432654527	1980.015468218993	596.1020207718718	1012.744675902418	2181.639538390704	558.2637927673456	914.78765856594	2131.683839862878	574.1614574664592	965.8101828806103	2200.603578040847	665.1317311325142	900.5592318228714	2151.927768182341	680.8510275502446	949.3197038726319	2310.396828773858	944.4505176279301	1177.123058073051	nan	nan	nan	2390.754336242723	19.66674542147958	1082.886808106988	2415.045386798128	35.55288820801917	1124.321237802326	2392.608551966264	63.78280100469923	1085.928278203294	2254.129066056879	1004.704426709699	1200.614607843274	2577.37222248229	80.06386143147317	1046.705323953235	2556.653884475748	52.83912402815872	1149.274089554858	2165.231372953996	965.5863952765876	1104.993413989744	2435.736208652002	150.0918588884717	1148.314568209841	2393.493019808417	149.9587268676474	1112.453387708824	2414.847523239571	225.0684791026978	1170.66183224148	2375.145250222697	225.2478028111103	1133.271950191326	2361.205379140488	561.0110175845776	1206.127341801222	2308.529542015043	542.7321171019411	1162.281145018546	2310.876689772206	656.5409018585368	1227.780874461726	2257.718101527078	636.4687597830604	1189.606758762901	
